<svg xmlns="http://www.w3.org/2000/svg" viewBox="0 0 371.56 190.85"><defs><style>.cls-1{fill:none;stroke:#d2d046;stroke-miterlimit:10;stroke-width:10px;}</style></defs><g id="Layer_2" data-name="Layer 2"><g id="Layer_1-2" data-name="Layer 1"><path d="M0,78.07H23.48a24.28,24.28,0,0,1,8.81,1.53,20.32,20.32,0,0,1,6.79,4.22,18.58,18.58,0,0,1,4.37,6.44A21.41,21.41,0,0,1,45,98.4a16.93,16.93,0,0,1-1.08,6.07,18.36,18.36,0,0,1-3,5.12,22.51,22.51,0,0,1-9.72,6.79l-.09.63,17.27,24.74v.72H34.45l-16.64-24.2H12.14v24.2H0Zm23.39,29.05a9.47,9.47,0,0,0,6.79-2.52,8.43,8.43,0,0,0,2.65-6.39,9.71,9.71,0,0,0-.58-3.32A8.38,8.38,0,0,0,30.49,92a8.77,8.77,0,0,0-2.92-2,10.08,10.08,0,0,0-4-.76H12.14v17.9Z"/><path d="M55.77,78.07H67.91v64.4H55.77Z"/><path d="M100.56,143.91a26.63,26.63,0,0,1-7.92-1.17,22.94,22.94,0,0,1-6.92-3.51,24.27,24.27,0,0,1-5.49-5.71,27.63,27.63,0,0,1-3.69-7.87L88,121.15a17.34,17.34,0,0,0,4.41,8,11.07,11.07,0,0,0,8.27,3.19,13.32,13.32,0,0,0,3.64-.49,10.8,10.8,0,0,0,3.15-1.44,7,7,0,0,0,2.2-2.38,6.68,6.68,0,0,0,.81-3.33,8,8,0,0,0-.63-3.24,7.56,7.56,0,0,0-2.11-2.7,18.77,18.77,0,0,0-3.87-2.43A61,61,0,0,0,98,114l-4-1.44a30.4,30.4,0,0,1-5.26-2.43,23,23,0,0,1-4.81-3.69,18.16,18.16,0,0,1-3.55-5.08A15.16,15.16,0,0,1,79,94.71a16.93,16.93,0,0,1,1.49-7.06,17.24,17.24,0,0,1,4.22-5.76A19.83,19.83,0,0,1,91.25,78a27.25,27.25,0,0,1,16.91-.09,20.69,20.69,0,0,1,6,3.33,18.5,18.5,0,0,1,4,4.45,21.48,21.48,0,0,1,2.25,4.59l-10.71,4.5a11.39,11.39,0,0,0-3.28-4.86,9.35,9.35,0,0,0-6.52-2.16,11.18,11.18,0,0,0-6.57,1.84,5.65,5.65,0,0,0-2.6,4.82,6.08,6.08,0,0,0,2.51,4.9,27.48,27.48,0,0,0,8,3.91l4,1.35a46.77,46.77,0,0,1,7.06,3.1,21.91,21.91,0,0,1,5.48,4.19,17,17,0,0,1,3.51,5.53,19.51,19.51,0,0,1,1.22,7.15,17.6,17.6,0,0,1-2,8.68,18.54,18.54,0,0,1-5.17,6,22.56,22.56,0,0,1-7.1,3.51A27.24,27.24,0,0,1,100.56,143.91Z"/><path d="M163.07,143.91a33.82,33.82,0,0,1-13.35-2.61A32.55,32.55,0,0,1,132,123.45a35.08,35.08,0,0,1,0-26.36,32.55,32.55,0,0,1,17.72-17.85,35.47,35.47,0,0,1,26.71,0,32.82,32.82,0,0,1,10.66,7.15,33.24,33.24,0,0,1,7.06,10.7,35.21,35.21,0,0,1,0,26.36,33.35,33.35,0,0,1-7.06,10.7,32.82,32.82,0,0,1-10.66,7.15A33.9,33.9,0,0,1,163.07,143.91Zm0-11.52a21.76,21.76,0,0,0,8.41-1.62,21,21,0,0,0,6.84-4.49,20.74,20.74,0,0,0,4.59-7,25.44,25.44,0,0,0,0-18.08,20.74,20.74,0,0,0-4.59-7,21.19,21.19,0,0,0-6.84-4.5,22.64,22.64,0,0,0-16.82,0,21.19,21.19,0,0,0-6.84,4.5,20.57,20.57,0,0,0-4.58,7,25.3,25.3,0,0,0,0,18.08,20.57,20.57,0,0,0,4.58,7,21,21,0,0,0,6.84,4.49A21.76,21.76,0,0,0,163.07,132.39Z"/><path d="M206.52,78.07H230a24.3,24.3,0,0,1,8.82,1.53,20.42,20.42,0,0,1,6.79,4.22A18.41,18.41,0,0,1,250,90.26a21.22,21.22,0,0,1,1.53,8.14,16.93,16.93,0,0,1-1.08,6.07,18.15,18.15,0,0,1-3,5.12,22.56,22.56,0,0,1-9.71,6.79l-.09.63,17.27,24.74v.72H241l-16.64-24.2h-5.66v24.2H206.52Zm23.38,29.05a9.46,9.46,0,0,0,6.79-2.52,8.43,8.43,0,0,0,2.66-6.39,9.72,9.72,0,0,0-.59-3.32A8.35,8.35,0,0,0,237,92a8.81,8.81,0,0,0-2.93-2,10.08,10.08,0,0,0-4-.76H218.66v17.9Z"/><path d="M282,143.91a26.52,26.52,0,0,1-7.91-1.17,22.88,22.88,0,0,1-6.93-3.51,24.27,24.27,0,0,1-5.49-5.71,27.35,27.35,0,0,1-3.68-7.87l11.42-4.5a17.43,17.43,0,0,0,4.41,8,11.07,11.07,0,0,0,8.27,3.19,13.32,13.32,0,0,0,3.64-.49,10.8,10.8,0,0,0,3.15-1.44,7,7,0,0,0,2.21-2.38,6.67,6.67,0,0,0,.8-3.33,8.17,8.17,0,0,0-.62-3.24,7.59,7.59,0,0,0-2.12-2.7,18.77,18.77,0,0,0-3.87-2.43,61,61,0,0,0-5.89-2.42l-4-1.44a30.75,30.75,0,0,1-5.26-2.43,23,23,0,0,1-4.81-3.69,18.16,18.16,0,0,1-3.55-5.08,15.16,15.16,0,0,1-1.4-6.61,16.93,16.93,0,0,1,1.49-7.06,17.27,17.27,0,0,1,4.23-5.76A19.68,19.68,0,0,1,272.67,78a27.25,27.25,0,0,1,16.91-.09,20.69,20.69,0,0,1,6,3.33,18.5,18.5,0,0,1,4,4.45,21.48,21.48,0,0,1,2.25,4.59l-10.7,4.5a11.42,11.42,0,0,0-3.29-4.86,9.35,9.35,0,0,0-6.52-2.16,11.18,11.18,0,0,0-6.57,1.84,5.67,5.67,0,0,0-2.6,4.82,6.08,6.08,0,0,0,2.51,4.9,27.48,27.48,0,0,0,8,3.91l4.05,1.35a46.33,46.33,0,0,1,7.06,3.1,22.15,22.15,0,0,1,5.49,4.19,17,17,0,0,1,3.5,5.53,19.51,19.51,0,0,1,1.22,7.15,17.6,17.6,0,0,1-2,8.68,18.42,18.42,0,0,1-5.17,6,22.56,22.56,0,0,1-7.1,3.51A27.24,27.24,0,0,1,282,143.91Z"/><path d="M331.9,78.07h13.85l24.2,64.4h-13.4l-5.31-15.38H326.41l-5.3,15.38h-13.4Zm15.38,37.86-5.75-16.1L339.19,92h-.72l-2.34,7.82-5.76,16.1Z"/><path d="M12.14,13V27.88H38V39.4H12.14V54.33h28.7V65.84H0V1.44H40.84V13Z"/><path d="M71.69,67.28a26.63,26.63,0,0,1-7.92-1.17,22.88,22.88,0,0,1-6.93-3.51,24.43,24.43,0,0,1-5.48-5.71A27.63,27.63,0,0,1,47.67,49l11.42-4.5a17.38,17.38,0,0,0,4.41,8,11.11,11.11,0,0,0,8.28,3.2,13.33,13.33,0,0,0,3.64-.5,10.8,10.8,0,0,0,3.15-1.44,7,7,0,0,0,2.2-2.38,6.68,6.68,0,0,0,.81-3.33A8,8,0,0,0,81,44.88a7.64,7.64,0,0,0-2.11-2.7A19.21,19.21,0,0,0,75,39.76a58.32,58.32,0,0,0-5.89-2.43l-4-1.44a30.4,30.4,0,0,1-5.26-2.43,23,23,0,0,1-4.81-3.69,18.19,18.19,0,0,1-3.56-5.08,15.16,15.16,0,0,1-1.39-6.61A16.92,16.92,0,0,1,51.58,11a17.27,17.27,0,0,1,4.23-5.76,19.83,19.83,0,0,1,6.57-3.87A24.65,24.65,0,0,1,70.88,0a24.65,24.65,0,0,1,8.41,1.3,20.63,20.63,0,0,1,6,3.33,18.73,18.73,0,0,1,4,4.45,21.88,21.88,0,0,1,2.24,4.59l-10.7,4.5a11.39,11.39,0,0,0-3.28-4.86,9.36,9.36,0,0,0-6.52-2.16A11.11,11.11,0,0,0,64.49,13a5.64,5.64,0,0,0-2.61,4.81,6.09,6.09,0,0,0,2.52,4.9,27.23,27.23,0,0,0,8,3.91l4,1.35a46.34,46.34,0,0,1,7.06,3.11A22.12,22.12,0,0,1,89,35.26a17,17,0,0,1,3.51,5.53,19.52,19.52,0,0,1,1.21,7.15,17.6,17.6,0,0,1-2,8.68,18.54,18.54,0,0,1-5.17,6,22.5,22.5,0,0,1-7.11,3.51A27.18,27.18,0,0,1,71.69,67.28Z"/><path d="M121.61,1.44h13.85l24.19,64.4h-13.4L141,50.46H116.12l-5.31,15.38H97.41ZM137,39.31l-5.76-16.1-2.34-7.83h-.72l-2.34,7.83-5.75,16.1Z"/><path d="M167.21,1.44h12.14v64.4H167.21Z"/><path d="M204.45,13V27.88h25.81V39.4H204.45V54.33h28.69V65.84H192.3V1.44h40.84V13Z"/><path d="M244.29,1.44h23.48A24.24,24.24,0,0,1,276.58,3a20.24,20.24,0,0,1,6.79,4.23,18.31,18.31,0,0,1,4.37,6.43,21.45,21.45,0,0,1,1.53,8.14,16.89,16.89,0,0,1-1.08,6.07,18.2,18.2,0,0,1-3,5.13,22.11,22.11,0,0,1-4.41,4,22.35,22.35,0,0,1-5.31,2.75l-.09.63,17.27,24.73v.72H278.74L262.1,41.64h-5.66v24.2H244.29Zm23.39,29.05A9.46,9.46,0,0,0,274.47,28a8.4,8.4,0,0,0,2.65-6.38,9.73,9.73,0,0,0-.58-3.33,8.38,8.38,0,0,0-1.76-2.88,8.61,8.61,0,0,0-2.92-2,9.91,9.91,0,0,0-4-.77H256.44v17.9Z"/><path d="M313.73,65.84V13h-18V1.44h48.12V13h-18V65.84Z"/><path d="M17.86,175.07,16,176.27l-1.25-1.87a9.87,9.87,0,0,1-4.39,1,9,9,0,0,1-6.69-2.76,9.86,9.86,0,0,1,0-13.58,9,9,0,0,1,6.69-2.76,9,9,0,0,1,6.69,2.78,9.28,9.28,0,0,1,2.71,6.77,9.79,9.79,0,0,1-.83,4,9.56,9.56,0,0,1-2.37,3.24Zm-7.48-1.87a7,7,0,0,0,3.09-.71l-2.15-3.22L13.16,168l2.12,3.19a7,7,0,0,0,2.1-5.31,7.14,7.14,0,0,0-2-5.23,6.63,6.63,0,0,0-5-2.07,6.69,6.69,0,0,0-5,2.07,7.84,7.84,0,0,0,0,10.46A6.69,6.69,0,0,0,10.38,173.2Z"/><path d="M28.92,175.45a6.38,6.38,0,0,1-4.9-2,7.24,7.24,0,0,1-1.87-5.21V156.76H24.5v11.59a5.07,5.07,0,0,0,1.18,3.55,4.13,4.13,0,0,0,3.24,1.3,4.13,4.13,0,0,0,3.24-1.3,5.12,5.12,0,0,0,1.18-3.55V156.76h2.34v11.49a7.35,7.35,0,0,1-1.83,5.26A6.49,6.49,0,0,1,28.92,175.45Z"/><path d="M40,175H37.42l6.89-18.28H47L53.86,175h-2.6l-1.76-4.95H41.81Zm5.56-15.4-3,8.25h6.08l-3-8.25Z"/><path d="M66.27,175H56V156.76h2.35v16h7.91Z"/><path d="M71.07,175H68.72V156.76h2.35Z"/><path d="M81,159v16H78.63V159H73.52v-2.25H86.09V159Z"/><path d="M95.51,166.54V175H93.16v-8.5L87,156.76h2.75l4.52,7.43h.11l4.41-7.43h2.76Z"/><path d="M111.47,178.11h-2.15V154.82h2.15Z"/><path d="M131.28,170.15a4.79,4.79,0,0,1-1.76,3.87,6.75,6.75,0,0,1-4.34,1.43,6.39,6.39,0,0,1-4-1.33,6.73,6.73,0,0,1-2.4-3.62l2.25-.92a5.48,5.48,0,0,0,.64,1.48,4.79,4.79,0,0,0,1,1.13,4,4,0,0,0,1.22.74,3.67,3.67,0,0,0,1.4.27,4,4,0,0,0,2.63-.83,2.7,2.7,0,0,0,1-2.21,2.63,2.63,0,0,0-.84-2,8,8,0,0,0-3-1.53,29.12,29.12,0,0,1-2.74-1.08,4.68,4.68,0,0,1-2.91-4.36,4.46,4.46,0,0,1,1.61-3.45,5.9,5.9,0,0,1,4-1.43,6.2,6.2,0,0,1,3.63,1.07,5,5,0,0,1,2,2.63l-2.2.92a3.23,3.23,0,0,0-1.21-1.7,3.95,3.95,0,0,0-4.53.09,2.23,2.23,0,0,0-1,1.86,2.14,2.14,0,0,0,.74,1.62,12.88,12.88,0,0,0,3.55,1.63,8.93,8.93,0,0,1,4,2.32A4.9,4.9,0,0,1,131.28,170.15Z"/><path d="M134.93,175h-2.6l6.89-18.28h2.66L148.77,175h-2.6l-1.76-4.95h-7.69Zm5.57-15.4-3,8.25h6.08l-3-8.25Z"/><path d="M153.27,167.2V175h-2.35V156.76h10.67V159h-8.32v6h7.5v2.19Z"/><path d="M174.92,156.76V159H166.6v5.79h7.5V167h-7.5v5.79h8.32V175H164.25V156.76Z"/><path d="M184.32,159v16H182V159h-5.11v-2.25h12.56V159Z"/><path d="M198.84,166.54V175H196.5v-8.5l-6.16-9.78h2.76l4.52,7.43h.1l4.42-7.43h2.76Z"/><path d="M214.8,178.11h-2.14V154.82h2.14Z"/><path d="M226.45,175H224.1V156.76h6.23a5.67,5.67,0,0,1,4,1.57,5.24,5.24,0,0,1,.44,7.23,5.55,5.55,0,0,1-3.13,1.87l-.05.08,5.13,7.43v.1H234l-4.93-7.4h-2.6Zm0-16v6.43h3.78a3.41,3.41,0,0,0,2.42-.93,3,3,0,0,0,1-2.31,3.23,3.23,0,0,0-3.27-3.19Z"/><path d="M249.53,156.76V159H241.2v5.79h7.51V167H241.2v5.79h8.33V175H238.86V156.76Z"/><path d="M263,175H252.69V156.76H255v16H263Z"/><path d="M267.76,175h-2.35V156.76h2.35Z"/><path d="M272.51,175H269.9l6.9-18.28h2.65l6.9,18.28h-2.61L282,170.09H274.3Zm5.56-15.4-3,8.25h6.07l-3-8.25Z"/><path d="M288.49,175V156.76h6.62a5.31,5.31,0,0,1,3.72,1.43,4.58,4.58,0,0,1,1.56,3.55,3.85,3.85,0,0,1-2.48,3.8v.1a4.44,4.44,0,0,1,2.25,1.6,4.25,4.25,0,0,1,.84,2.59,4.82,4.82,0,0,1-1.63,3.73,5.5,5.5,0,0,1-3.91,1.48Zm2.35-16v5.59h4.27a2.81,2.81,0,0,0,2.09-.85,2.73,2.73,0,0,0,.84-2,2.77,2.77,0,0,0-.81-1.94,2.72,2.72,0,0,0-2-.84Zm0,7.78v6h4.73a3,3,0,0,0,3-3,2.83,2.83,0,0,0-.89-2.09,3,3,0,0,0-2.25-.9Z"/><path d="M306,175h-2.35V156.76H306Z"/><path d="M320,175H309.69V156.76H312v16H320Z"/><path d="M324.75,175H322.4V156.76h2.35Z"/><path d="M334.66,159v16h-2.35V159H327.2v-2.25h12.57V159Z"/><path d="M349.19,166.54V175h-2.35v-8.5l-6.16-9.78h2.76l4.52,7.43h.1l4.42-7.43h2.76Z"/><polyline class="cls-1" points="0 185.85 366.56 185.85 366.56 158.85"/></g></g></svg>