<svg xmlns="http://www.w3.org/2000/svg" viewBox="0 0 51.59 192.6"><defs><style>.cls-1{fill:#d2d046;}.cls-2{fill:#e3e3e3;}.cls-3{fill:#dadada;}.cls-4{fill:#dbdbdb;}.cls-5{fill:#e7e7e7;}.cls-6{fill:#dfdfdf;}.cls-7{fill:#f0f0f0;}.cls-8{fill:#ebebeb;}.cls-9{fill:#e8e8e8;}.cls-10{fill:#eaeaea;}.cls-11{fill:#ddd;}.cls-12{fill:#e5e5e5;}.cls-13{fill:#d7d7d7;}.cls-14{fill:#f6f6f6;}.cls-15{fill:#fefefe;}.cls-16{fill:#d3d3d3;}</style></defs><g id="Layer_2" data-name="Layer 2"><g id="Layer_1-2" data-name="Layer 1"><polygon class="cls-1" points="50.91 33.47 50.91 57.58 0 86.97 0 62.86 50.91 33.47"/><polygon class="cls-1" points="50.91 68.96 50.91 94.42 0 123.81 0 98.36 50.91 68.96"/><polygon points="50.91 107.14 50.91 154.81 9.63 130.98 50.91 107.14"/><polygon class="cls-1" points="49.52 164.05 27.05 177.02 0 161.41 0 136.54 0.94 136 49.52 164.05"/><polygon points="50.91 172.26 50.91 192.6 15.68 192.6 34.86 181.53 50.91 172.26"/><path class="cls-2" d="M22.87,0c0,.08.06.08.12.09a16.91,16.91,0,0,1,4.4.92A23.74,23.74,0,0,1,31.2,2.64,28.64,28.64,0,0,1,34.89,5l.44.3c0,.1.09.14.15.2.51.44,1,.86,1.52,1.32a21,21,0,0,1,1.6,1.67,26.84,26.84,0,0,1,1.67,2.15,21.09,21.09,0,0,1,2,3.56,3.13,3.13,0,0,1,.3,1.21l-.3-.67a.45.45,0,0,0-.81-.11,3,3,0,0,0-.49.92,6.62,6.62,0,0,0-.33,1.65,6.28,6.28,0,0,0,0,1.62,1.84,1.84,0,0,1-.19,1.46,4.94,4.94,0,0,1-1.1,1.09,1.83,1.83,0,0,0-.79,1.54c0,.33,0,.65,0,1a24.23,24.23,0,0,1-.07,2.69c-.07.73-.09,1.46-.18,2.2s-.08,1.26-.14,1.9a1.74,1.74,0,0,1-.08.5c-.18-.05-.25,0-.27.19,0,.45-.08.9-.13,1.36a.46.46,0,0,1-.09.28c-.08-.15,0-.28,0-.4,0-.51.08-1,.13-1.53,0-.27,0-.27-.22-.2a10.67,10.67,0,0,1,.1-1.38c0-.63.14-1.26.16-1.89s.07-1.09.1-1.64l.06-.8a10.35,10.35,0,0,0,0-1.67,4.44,4.44,0,0,1,0-1,2.13,2.13,0,0,1,1-1.3,3.16,3.16,0,0,0,.84-.87A.93.93,0,0,0,40,19.7a.88.88,0,0,0,0-.71,2.92,2.92,0,0,1-.15-1c.06-.36,0-.71.11-1.07a7.09,7.09,0,0,1,.33-1.34,6.75,6.75,0,0,1,.53-1c.14-.21.05-.37-.2-.38a.7.7,0,0,0-.32,0,.3.3,0,0,1-.37-.14l-.23-.4c-.05-.08-.05-.2-.17-.23l-.35-.78a.08.08,0,0,0-.09-.09c-.1-.28-.34-.49-.44-.78,0-.06,0-.09-.08-.09v0a.08.08,0,0,0-.09-.09.56.56,0,0,0-.09-.19c-.23-.24-.39-.54-.61-.78a2.31,2.31,0,0,0-.52-.56,4.52,4.52,0,0,0-.78-.91l-.68-.7a2.11,2.11,0,0,0-.5-.44c0-.09-.08-.15-.14-.2l-.69-.58,0,0a13.52,13.52,0,0,0-1.17-.81c-.4-.22-.77-.5-1.18-.71a10.36,10.36,0,0,0-1.91-.89.73.73,0,0,0-.64.07c-.11.08-.23.12-.34.2a.43.43,0,0,1-.45,0c-.16-.08-.33-.14-.52-.22,0,.12.11.15.17.19.54.39,1.14.69,1.66,1.11.73.58,1.47,1.14,2.17,1.75.14.12.26.29.44.34a1.71,1.71,0,0,0,.18.2A18.49,18.49,0,0,1,34.36,9.9a22.4,22.4,0,0,1,2,2.83l-.09.13a12.32,12.32,0,0,1-1-1.4c0-.22-.22-.34-.33-.51s-.09-.22-.24-.23h0a.24.24,0,0,0-.22-.26h0c0-.24-.23-.36-.37-.51-.5-.53-1-1-1.54-1.56a.27.27,0,0,0-.22-.11l-.13-.09-.09-.13c0-.11-.08-.13-.18-.13l0,0a.61.61,0,0,0-.43-.35h0l-.05,0L31,7.2c-.63-.46-1.23-1-1.9-1.39A31.91,31.91,0,0,0,25,3.59a17.54,17.54,0,0,0-3.15-1,17,17,0,0,0-2-.27,16,16,0,0,0-2.19,0,8.92,8.92,0,0,0-1.7.31c-.13,0-.3,0-.38.16H15.5c-.08-.07-.12,0-.17,0a5.79,5.79,0,0,0-1.08.31,11.69,11.69,0,0,0-2.74,1.47,3.83,3.83,0,0,1-.8.53,3.1,3.1,0,0,1,.63-.81,12.88,12.88,0,0,1,4-2.93A13.75,13.75,0,0,1,19.12.22a6.87,6.87,0,0,1,1.1-.13c.06,0,.12,0,.12-.09ZM38.39,24.88V22.36a1.57,1.57,0,0,0-.12.95,8,8,0,0,1,0,1.62c0,.85-.08,1.69-.09,2.54h.08ZM13.59,2.7a9.4,9.4,0,0,0-1.17.91l0,.05,1.31-.61.94-.35a15.84,15.84,0,0,1,2-.58c.05,0,.19,0,.1-.14s0-.24.05-.36a1.67,1.67,0,0,1,.45-.34l.6-.39a7.55,7.55,0,0,0-2.38.72A15.15,15.15,0,0,0,13.59,2.7ZM39,9.94c.11.16.21.32.33.48a14.77,14.77,0,0,1,1.8,3,2.77,2.77,0,0,0,.28.54c.1.17.25.11.38,0s.06-.17,0-.26-.23-.42-.33-.63a19.07,19.07,0,0,0-1.7-2.72,1.7,1.7,0,0,0-.47-.56,1.93,1.93,0,0,0-.45-.61A22.75,22.75,0,0,0,36.78,7a27.74,27.74,0,0,0-2.59-2.14,25.06,25.06,0,0,0-2.72-1.74,24.79,24.79,0,0,0-3-1.42c-.46-.17-.92-.34-1.39-.49-.08,0-.16,0-.2.06a.14.14,0,0,0,.1.2c.16.05.31.13.46.19A29.87,29.87,0,0,1,30.57,3a26,26,0,0,1,3.18,2,29.78,29.78,0,0,1,2.65,2.1A24.92,24.92,0,0,1,39,9.94Zm1.32,8.64a9.94,9.94,0,0,1,.4-3.16A5.54,5.54,0,0,0,40.32,18.58Zm.11,1.09a1.33,1.33,0,0,0-.09-.9C40.35,19.07,40.41,19.37,40.43,19.67Z"/><path class="cls-3" d="M51.59,36.13s-.07,0-.08,0a2.58,2.58,0,0,1-1,1.21,20.53,20.53,0,0,1-5,2.58,23.09,23.09,0,0,1-4.4,1.12,12.33,12.33,0,0,1-1.83.18c-.06,0-.13,0-.14.09H36.42c0-.08-.06-.09-.12-.09a13.66,13.66,0,0,1-1.68-.17,17.6,17.6,0,0,1-2.69-.56c-1.51-.43-3-.84-4.54-1.25-1.29-.35-2.57-.74-3.85-1.14a31.1,31.1,0,0,1-4.38-1.72l-1.38-.65c-.14-.07-.2,0-.23.12s-.08.39-.13.59a.33.33,0,0,1-.44.27c-.46-.09-.91-.25-1.36-.38-.27-.09-.33-.19-.33-.49s0-.71,0-1.06l.1-.2c0-.06.09-.09.16,0a2.54,2.54,0,0,0,.52.2c.08,0,.16.05.21,0s0-.15-.1-.19l-.4-.25c-.06,0-.23-.12,0-.24.78.34,1.5.78,2.25,1.18a21,21,0,0,0,1.89,1.09c.75.31,1.5.61,2.27.87a12.65,12.65,0,0,0,1.57.54c.72.26,1.45.47,2.18.68l3.44,1c.93.25,1.87.49,2.79.78l1.11.26c.59.13,1.18.22,1.77.31.78.1,1.57.12,2.35.17a22.48,22.48,0,0,0,7.19-1c.53-.19,1.06-.35,1.57-.57a12.39,12.39,0,0,1,1.26-.52,17.54,17.54,0,0,0,3-1.79,2.51,2.51,0,0,0,1.11-1.27s0,0,.07,0Zm-35.48-.39c0,.13.06.28.24.3s.27-.15.28-.31a.34.34,0,0,0-.27-.3C16.17,35.44,16.14,35.58,16.11,35.74Z"/><path class="cls-4" d="M51.59,35.69s-.07,0-.07,0A2.51,2.51,0,0,1,50.41,37a17.54,17.54,0,0,1-3,1.79c0-.22.2-.28.34-.36.53-.3,1.08-.57,1.59-.89a9.88,9.88,0,0,0,1.88-1.4,1,1,0,0,0,.3-.56,1.65,1.65,0,0,0-.09-.72A4.82,4.82,0,0,0,50.1,33a11.5,11.5,0,0,0-1.59-1.27,28.17,28.17,0,0,0-3.55-2c-.43-.21-.46-.18-.48.29a2.17,2.17,0,0,1-.13.91c-.11-.18,0-.36,0-.54,0-.44.07-.87,0-1.3,0-.05,0-.09,0-.12s.09-.28.05-.43,0-.16-.11-.17-.12.06-.16.12h-.34c0-.15,0-.33-.13-.43.14-.52.2-1.06.3-1.59.18-.95.3-1.91.43-2.87,0-.1,0-.23.09-.29,0,.85,0,1.7,0,2.55,0,.63-.09,1.26-.14,1.9,0,0,0,.08,0,.12A1.54,1.54,0,0,1,44.61,29a.41.41,0,0,0,.27.45,23.49,23.49,0,0,1,3.59,2,10.81,10.81,0,0,1,1.82,1.48,4.78,4.78,0,0,1,1.22,1.87s0,0,.08.06Z"/><path class="cls-5" d="M15.5,2.79h.09c.47,0,.94-.1,1.42-.12a7,7,0,0,1,1.59,0c0,.13-.15.11-.25.13s-.45,0-.61.27c-.48.66-1,1.32-1.4,2,0,.06-.11.11-.07.19s.13,0,.2.06.34-.06.47.08c0,0-.07,0-.11,0-.45.06-.89.09-1.33.18a12.91,12.91,0,0,0-4.89,2.1c-.17.12-.39.19-.47.42-.29.14-.59.24-.88.39a8.75,8.75,0,0,0-2.59,2.21,11.62,11.62,0,0,0-1.22,1.8A18.36,18.36,0,0,0,4,16.05c-.14.48-.28.95-.43,1.43-.12,0-.13.12-.16.2-.12.27-.22.54-.32.81-.5,1.21-.89,2.45-1.27,3.7-.09.29-.17.59-.26.89,0,.08-.06.22-.14.21s-.05-.15-.07-.23.06-.27-.09-.35c.22-.17.47-.32.43-.66.21-.76.4-1.52.61-2.28.33-1.19.73-2.36,1.15-3.53.35-1,.75-1.91,1.18-2.84A29.16,29.16,0,0,1,6.89,9.28,18.77,18.77,0,0,1,9.66,6.09l1.05-1a3.83,3.83,0,0,0,.8-.53,11.69,11.69,0,0,1,2.74-1.47,5.79,5.79,0,0,1,1.08-.31C15.39,2.83,15.46,2.85,15.5,2.79Z"/><path class="cls-2" d="M12.54,33.69c-.47-.16-.95-.31-1.41-.49-1-.37-1.9-.75-2.86-1.09-.41-.15-.8-.34-1.19-.52-.6-.28-1.22-.5-1.8-.82C4.5,30.34,3.69,30,3,29.46A6.59,6.59,0,0,1,.33,26.31.81.81,0,0,1,.25,26c.12-.07.19,0,.24.1s.15.38.24.56a5.7,5.7,0,0,0,1.53,1.85,2.47,2.47,0,0,0,.65.46L3,29a24.58,24.58,0,0,0,3.32,1.87,5.06,5.06,0,0,0,.58.25c.26.11.36,0,.36-.24s-.27-.43-.51-.54C6,30,5.16,29.63,4.44,29.18a2.24,2.24,0,0,1-.53-.33c.06,0,.14,0,.11-.1s0-.07.07-.07c.06.18.25.23.39.3l2.69,1.3a4.84,4.84,0,0,0,.49.18,1,1,0,0,0,.32.18l.88.36,2.83,1.21a13.28,13.28,0,0,1,1.33.61.37.37,0,0,1-.42,0l-1.16-.49a.32.32,0,0,0-.36,0c-.11.1-.06.23,0,.35a.41.41,0,0,0,.24.24l.93.36C12.38,33.4,12.55,33.46,12.54,33.69Z"/><path class="cls-6" d="M12.54,33.69c0-.23-.16-.29-.32-.35L11.29,33a.41.41,0,0,1-.24-.24c0-.12-.08-.25,0-.35a.32.32,0,0,1,.36,0l1.16.49a.37.37,0,0,0,.42,0c.5.16,1,.43,1.44.63a7.79,7.79,0,0,0,1,.41c.06.11.19.13.26.22-.18.12,0,.19,0,.24l.4.25c.07,0,.15.09.1.19s-.13.07-.21,0a2.54,2.54,0,0,1-.52-.2c-.07-.06-.12,0-.16,0l-.1.2a2.57,2.57,0,0,0-.93-.44C13.76,34.13,13.13,34,12.54,33.69Z"/><path class="cls-7" d="M2.91,28.94a2.47,2.47,0,0,1-.65-.46A5.7,5.7,0,0,1,.73,26.63c-.09-.18-.16-.37-.24-.56S.37,25.9.25,26a1.18,1.18,0,0,1-.2-.63,3,3,0,0,1,.86-2.79,2.79,2.79,0,0,1,.73-.5c0,.34-.21.49-.43.66S1,22.86,1,23a1.5,1.5,0,0,0-.57,1.14,2.48,2.48,0,0,0,.17,1,.92.92,0,0,0,0,.49,4.46,4.46,0,0,0,1.34,1.85,7.24,7.24,0,0,0,.94.71.2.2,0,0,0,.09.09A2.09,2.09,0,0,1,2.91,28.94Z"/><path class="cls-7" d="M42.57,15.43a3.13,3.13,0,0,0-.3-1.21,21.09,21.09,0,0,0-2-3.56A26.84,26.84,0,0,0,38.6,8.51,21,21,0,0,0,37,6.84c-.48-.46-1-.88-1.52-1.32-.06-.06-.14-.1-.15-.2a3.89,3.89,0,0,1,.94.61A19.61,19.61,0,0,1,39,8.35a19.33,19.33,0,0,1,2.2,2.89,20.37,20.37,0,0,1,1.3,2.38,25.1,25.1,0,0,1,1.15,3.18,32.49,32.49,0,0,1,.74,3.66,1,1,0,0,1,0,.24c-.19,0-.35.21-.57.09a1.08,1.08,0,0,0-.39-.83.52.52,0,0,0-.1-.11,1.68,1.68,0,0,0-.42-.17.56.56,0,0,1-.39-.41s0-.09,0-.11.06,0,.09,0c.29.16.64.2.88.46a3.13,3.13,0,0,0-.18-.87,11.13,11.13,0,0,0-.69-2,5,5,0,0,1,0-1C42.61,15.62,42.65,15.52,42.57,15.43Z"/><path class="cls-8" d="M43.83,20.79c.22.12.38-.09.57-.09.07.75.16,1.49.17,2.24,0,.13.11.25,0,.38s-.07.19-.09.29c-.13,1-.25,1.92-.43,2.87-.1.53-.16,1.07-.3,1.59a.58.58,0,0,0,0,.14,13,13,0,0,1-.3,1.38c-.12-.2,0-.41,0-.61,0-.67.05-1.33.08-2s.11-1.52.09-2.28a.18.18,0,0,0,0-.09c0-.52.1-1,.13-1.56A17.17,17.17,0,0,0,43.83,20.79Z"/><path class="cls-9" d="M42.57,15.43c.08.09,0,.19,0,.29a5,5,0,0,0,0,1,1,1,0,0,0-.14.57,3.6,3.6,0,0,1-.06.81,11.17,11.17,0,0,1-.41,1.61c-.18.59-.32,1.18-.51,1.77-.11.35-.19.72-.29,1.08-.16.59-.35,1.17-.49,1.75-.2.82-.48,1.61-.66,2.42-.11.49-.28,1-.41,1.46s-.3,1.09-.45,1.64-.39,1.36-.58,2-.38,1.31-.54,2c0,.12-.11.15-.21.08v0s0-.09,0-.14c0-.38.08-.76.1-1.14s.12-1,.12-1.43a1.74,1.74,0,0,0,.08-.5c.06-.64.07-1.27.14-1.9s.11-1.47.18-2.2a24.23,24.23,0,0,0,.07-2.69c0-.33,0-.65,0-1a1.83,1.83,0,0,1,.79-1.54,4.94,4.94,0,0,0,1.1-1.09,1.84,1.84,0,0,0,.19-1.46,6.28,6.28,0,0,1,0-1.62A6.62,6.62,0,0,1,41,15.57a3,3,0,0,1,.49-.92.45.45,0,0,1,.81.11Z"/><path class="cls-9" d="M32.76,8.19c-.18,0-.3-.22-.44-.34-.7-.61-1.44-1.17-2.17-1.75C29.63,5.68,29,5.38,28.49,5c-.06,0-.14-.07-.17-.19.19.08.36.14.52.22a.43.43,0,0,0,.45,0c.11-.08.23-.12.34-.2a.73.73,0,0,1,.64-.07,10.36,10.36,0,0,1,1.91.89c.41.21.78.49,1.18.71a13.52,13.52,0,0,1,1.17.81l0,0c-.09.13-.26.15-.35.28s-.14.18,0,.25c.25.18.41.46.69.6.46.47.88,1,1.36,1.4.19.23.39.46.59.68a.17.17,0,0,0,.26,0,1.08,1.08,0,0,0,.28-.39,2.31,2.31,0,0,1,.52.56c.22.24.38.54.61.78a.56.56,0,0,1,.09.19c0,.06,0,.08.09.09v0c0,.06,0,.09.08.09.1.29.34.5.44.78a.08.08,0,0,0,.09.09l.35.78a4.89,4.89,0,0,1,0,.54,5.81,5.81,0,0,1-1,2.13.75.75,0,0,0-.13.61c.05.24.12.48.18.72a.84.84,0,0,1,0,.77.39.39,0,0,0-.06.23,1.65,1.65,0,0,0,.62,1.28h-.7c0-.15.07-.28,0-.43-.19-.9-.38-1.81-.61-2.71a.39.39,0,0,0,0-.35c-.1-.37-.28-.71-.36-1.09a.46.46,0,0,0,.11-.57,7,7,0,0,0-.44-.91,3.25,3.25,0,0,0-.54-1,3.69,3.69,0,0,0-.42-.75A16.62,16.62,0,0,0,34,9.16a9.57,9.57,0,0,0-1-.95C33,8.12,32.87,8.09,32.76,8.19Z"/><path class="cls-10" d="M38.43,19.7h.7a.74.74,0,0,0,.53.05A1.65,1.65,0,0,1,40,19.7a.93.93,0,0,1-.21.62,3.16,3.16,0,0,1-.84.87,2.13,2.13,0,0,0-1,1.3,4.44,4.44,0,0,0,0,1,10.35,10.35,0,0,1,0,1.67L38,26c0,.55-.07,1.09-.1,1.64l-.23,0a2.45,2.45,0,0,1-1.34-.11c0-.42.07-.85.09-1.27s0-.68,0-1c0-.66.08-1.31.09-2a5.08,5.08,0,0,1,.36-2,2.83,2.83,0,0,1,.91-.81c.15-.09.34-.17.4-.37C38.39,20.05,38.38,19.86,38.43,19.7Z"/><path class="cls-11" d="M18.6,2.66a7,7,0,0,0-1.59,0c-.48,0-1,.1-1.42.12.08-.16.25-.13.38-.16a8.92,8.92,0,0,1,1.7-.31,16,16,0,0,1,2.19,0,17,17,0,0,1,2,.27,17.54,17.54,0,0,1,3.15,1,31.91,31.91,0,0,1,4.11,2.22c.67.41,1.27.93,1.9,1.39l.4.3.05,0h0a.87.87,0,0,0,.43.35l0,0a.21.21,0,0,0,.18.13l.09.13a.51.51,0,0,0,.19.35,7.92,7.92,0,0,1,.56.61c.45.64.95,1.24,1.35,1.91.31.51.65,1,.91,1.53s.58,1.33.85,2c0,.12.14.25.06.4a6.92,6.92,0,0,1-.47-.84,2.44,2.44,0,0,0-.4-.68l-.12-.19a17.06,17.06,0,0,0-2.07-2.73c-.3-.31-.58-.64-.86-1a.86.86,0,0,0-.05-.23c0-.21-.22-.29-.35-.42s-.38-.5-.61-.73c-.4-.42-.89-.73-1.31-1.13a9.47,9.47,0,0,0-1.4-1,11.63,11.63,0,0,0-1.55-.94,4.35,4.35,0,0,0-1.19-.57c-.06,0-.11-.07-.17-.1A.92.92,0,0,0,25,4.31l-.26-.1-1.18-.55-.05,0a16.81,16.81,0,0,0-2.88-.79.73.73,0,0,0-.25,0H20.3a.28.28,0,0,0-.18,0A7.72,7.72,0,0,0,18.6,2.66Z"/><path class="cls-12" d="M36.29,27.54a2.45,2.45,0,0,0,1.34.11l.23,0c0,.63-.11,1.26-.16,1.89a10.67,10.67,0,0,0-.1,1.38c-.08.58-.13,1.16-.18,1.74,0,.37-.08.73-.12,1.09l-.18,1.74c0,.11-.08.09-.16.08a2.26,2.26,0,0,1-.63-.23c-.17-.12-.41,0-.55-.11a1.06,1.06,0,0,0-.88-.14,1.19,1.19,0,0,1-.59,0,.65.65,0,0,1,.22-.08.82.82,0,0,0,.46-.1c.17,0,.31-.09.48-.09s.08-.06.08-.11a3.26,3.26,0,0,1,.05-.45,1.56,1.56,0,0,0,.08-.48c.06-.43.11-.87.17-1.3s.09-.64.14-1v-.66c.1,0,.08-.14.09-.22,0-.3,0-.6,0-.89C36.18,29,36.24,28.26,36.29,27.54Z"/><path class="cls-12" d="M40,19.7a1.65,1.65,0,0,0-.38.05.74.74,0,0,1-.53-.05,1.65,1.65,0,0,1-.62-1.28.39.39,0,0,1,.06-.23.84.84,0,0,0,0-.77c-.06-.24-.13-.48-.18-.72a.75.75,0,0,1,.13-.61,5.81,5.81,0,0,0,1-2.13,4.89,4.89,0,0,0,0-.54c.12,0,.12.15.17.23l.23.4a.3.3,0,0,0,.37.14.7.7,0,0,1,.32,0c.25,0,.34.17.2.38a6.75,6.75,0,0,0-.53,1A7.09,7.09,0,0,0,40,16.88c-.08.36,0,.71-.11,1.07a2.92,2.92,0,0,0,.15,1A.88.88,0,0,1,40,19.7Z"/><path class="cls-13" d="M36.12,15c.08-.15,0-.28-.06-.4-.27-.67-.53-1.35-.85-2s-.6-1-.91-1.53c-.4-.67-.9-1.27-1.35-1.91a7.92,7.92,0,0,0-.56-.61.51.51,0,0,1-.19-.35l.13.09c.4.41.79.82,1.2,1.22a10.54,10.54,0,0,0,.93,1h0c0,.13.13.19.22.26h0a2.57,2.57,0,0,0,.57.74,12.32,12.32,0,0,0,1,1.4,4.09,4.09,0,0,0,.36.8,6.74,6.74,0,0,1,.34.72.26.26,0,0,0-.07.31,13.74,13.74,0,0,1,.82,3.08c.21.25,0,.64.27.87a.17.17,0,0,1,0,.05c-.18.14-.05.21.07.26-.22.23-.22.27,0,.35a.56.56,0,0,0-.15.46c.09,0,.1-.13.18-.07s0,.11,0,.16a1.34,1.34,0,0,1,0,.2,1,1,0,0,1-.55-.55,7.51,7.51,0,0,1-.19-.82,13.29,13.29,0,0,0-.74-2.42C36.47,15.83,36.29,15.41,36.12,15Z"/><path class="cls-7" d="M39,9.94a24.92,24.92,0,0,0-2.6-2.83A29.78,29.78,0,0,0,33.75,5a26,26,0,0,0-3.18-2,29.87,29.87,0,0,0-3.12-1.38c-.15-.06-.3-.14-.46-.19a.14.14,0,0,1-.1-.2c0-.1.12-.09.2-.06.47.15.93.32,1.39.49a24.79,24.79,0,0,1,3,1.42,25.06,25.06,0,0,1,2.72,1.74A27.74,27.74,0,0,1,36.78,7,22.75,22.75,0,0,1,38.85,9.2a1.93,1.93,0,0,1,.45.61C39.21,9.87,39.13,10,39,9.94Z"/><path class="cls-7" d="M13.59,2.7a15.15,15.15,0,0,1,2-1.09A7.55,7.55,0,0,1,17.94.89l-.6.39a1.67,1.67,0,0,0-.45.34c-.09.12-.15.22-.05.36s-.05.13-.1.14a15.84,15.84,0,0,0-2,.58l-.94.35A.35.35,0,0,1,13.59,2.7Z"/><path class="cls-10" d="M39,9.94c.13,0,.21-.07.3-.13a1.7,1.7,0,0,1,.47.56,19.07,19.07,0,0,1,1.7,2.72c.1.21.22.42.33.63s.13.19,0,.26-.28.13-.38,0a2.77,2.77,0,0,1-.28-.54,14.77,14.77,0,0,0-1.8-3C39.21,10.26,39.11,10.1,39,9.94Z"/><path class="cls-14" d="M32.76,8.19c.11-.1.19-.07.32,0a9.57,9.57,0,0,1,1,.95,16.62,16.62,0,0,1,2.18,2.77,3.69,3.69,0,0,1,.42.75c-.06.05-.09.15-.17.18s-.06-.12-.13-.13a22.4,22.4,0,0,0-2-2.83,18.49,18.49,0,0,0-1.42-1.51A1.71,1.71,0,0,1,32.76,8.19Z"/><path class="cls-11" d="M37.3,33.73c0-.36.09-.72.12-1.09,0-.58.1-1.16.18-1.74.26-.07.25-.07.22.2,0,.51-.09,1-.13,1.53,0,.12-.09.25,0,.4a.46.46,0,0,0,.09-.28c0-.46.1-.91.13-1.36,0-.19.09-.24.27-.19,0,.48-.1.95-.12,1.43s-.06.76-.1,1.14c0,0,0,.1,0,.14s-.12-.14-.22-.13h0c0-.22,0-.44,0-.66-.14.2-.09.44-.14.66h-.05A.31.31,0,0,0,37.3,33.73Z"/><path class="cls-15" d="M36.21,9.72c-.48-.44-.9-.93-1.36-1.4.14-.18.36-.23.53-.35a2.11,2.11,0,0,1,.5.44l.68.7A.73.73,0,0,1,36.21,9.72Z"/><path class="cls-7" d="M36.21,9.72a.73.73,0,0,0,.35-.61,4.52,4.52,0,0,1,.78.91,1.08,1.08,0,0,1-.28.39.17.17,0,0,1-.26,0C36.6,10.18,36.4,10,36.21,9.72Z"/><path class="cls-14" d="M35.38,8c-.17.12-.39.17-.53.35-.28-.14-.44-.42-.69-.6-.1-.07,0-.17,0-.25s.26-.15.35-.28l.69.58C35.3,7.82,35.38,7.88,35.38,8Z"/><path class="cls-12" d="M36.34,12.73c.07,0,.07.09.13.13a1,1,0,0,0,.2.51,9.14,9.14,0,0,1,.67,1.46.5.5,0,0,0,.17.29c.08.38.26.72.36,1.09a.39.39,0,0,1,0,.35c-.15-.42-.3-.84-.47-1.25a4,4,0,0,0-.44-.93,6.74,6.74,0,0,0-.34-.72,4.09,4.09,0,0,1-.36-.8Z"/><path class="cls-8" d="M13.59,2.7a.35.35,0,0,0,.17.35l-1.31.61,0-.05A9.4,9.4,0,0,1,13.59,2.7Z"/><path class="cls-14" d="M40.32,18.58a5.54,5.54,0,0,1,.4-3.16A9.94,9.94,0,0,0,40.32,18.58Z"/><path class="cls-10" d="M34.46,10.46a10.54,10.54,0,0,1-.93-1c-.41-.4-.8-.81-1.2-1.22a.27.27,0,0,1,.22.11c.51.52,1,1,1.54,1.56C34.23,10.1,34.44,10.22,34.46,10.46Z"/><path class="cls-14" d="M38.26,24.93a8,8,0,0,0,0-1.62,1.57,1.57,0,0,1,.12-.95v2.52Z"/><path class="cls-9" d="M38.26,24.93l.13-.05-.14,2.59h-.08C38.18,26.62,38.27,25.78,38.26,24.93Z"/><path class="cls-9" d="M40.43,19.67c0-.3-.08-.6-.09-.9A1.33,1.33,0,0,1,40.43,19.67Z"/><path class="cls-10" d="M35.25,11.46a2.57,2.57,0,0,1-.57-.74c.15,0,.18.14.24.23S35.23,11.24,35.25,11.46Z"/><path class="cls-10" d="M31.89,7.89a.87.87,0,0,1-.43-.35A.61.61,0,0,1,31.89,7.89Z"/><path class="cls-10" d="M34.68,10.72c-.09-.07-.19-.13-.22-.26A.24.24,0,0,1,34.68,10.72Z"/><path class="cls-10" d="M32.11,8.06a.21.21,0,0,1-.18-.13C32,7.93,32.1,8,32.11,8.06Z"/><path class="cls-11" d="M15.5,2.79c0,.06-.11,0-.17,0S15.42,2.72,15.5,2.79Z"/><path class="cls-12" d="M39.26,12.64a.08.08,0,0,1-.09-.09A.08.08,0,0,1,39.26,12.64Z"/><path class="cls-12" d="M38.73,11.77s-.08,0-.08-.09S38.73,11.71,38.73,11.77Z"/><path class="cls-12" d="M38.65,11.64c-.06,0-.09,0-.09-.09A.08.08,0,0,1,38.65,11.64Z"/><path class="cls-10" d="M31.46,7.54l-.05,0Z"/><path class="cls-8" d="M44.35,30.94a2.17,2.17,0,0,0,.13-.91c0-.47.05-.5.48-.29a28.17,28.17,0,0,1,3.55,2A11.5,11.5,0,0,1,50.1,33a4.82,4.82,0,0,1,1.28,1.84,1.65,1.65,0,0,1,.09.72,1,1,0,0,1-.3.56,9.88,9.88,0,0,1-1.88,1.4c-.51.32-1.06.59-1.59.89-.14.08-.33.14-.34.36a12.39,12.39,0,0,0-1.26.52c-.51.22-1,.38-1.57.57-.05-.22-.22-.14-.34-.11a28.23,28.23,0,0,1-3.16.69c-.67.07-1.33.19-2,.2-.27,0-.53,0-.8.07a2.63,2.63,0,0,1-.84,0h-.47l-1.74-.12c-.12,0-.19,0-.18.17-.59-.09-1.18-.18-1.77-.31l-1.11-.26c0-.13.09-.17.23-.14a5.4,5.4,0,0,0,.78.16c.21,0,.42.17.63.09a2.22,2.22,0,0,0,1.06-.72,13.06,13.06,0,0,0,.74-1.09l.13.09a3.28,3.28,0,0,1-1.6,1.8,6.46,6.46,0,0,0,1.64,0,4.47,4.47,0,0,0,2.78-1.28,11.73,11.73,0,0,0,1.32-1.66A23.88,23.88,0,0,1,43,33.94c.08-.08.22-.11.23-.25s0-.12,0-.18a3.9,3.9,0,0,1,.09-1.13,14.18,14.18,0,0,0,.92-1.13A.41.41,0,0,0,44.35,30.94Z"/><path class="cls-2" d="M35.55,38.48a13.06,13.06,0,0,1-.74,1.09,2.22,2.22,0,0,1-1.06.72c-.21.08-.42-.06-.63-.09a5.4,5.4,0,0,1-.78-.16c-.14,0-.21,0-.23.14-.92-.29-1.86-.53-2.79-.78l-3.44-1c-.06-.19-.23-.25-.39-.31l-3-1-.32-.07c-.21-.15-.49-.14-.69-.31.08-.16.26-.16.39-.16.79,0,1.58-.1,2.37-.14l1.36-.1,1.76-.16,1.06-.1,1.5-.16,1.08-.1a.23.23,0,0,0,.24-.25,1.27,1.27,0,0,1,.61-.31.23.23,0,0,0,.19.09c.8,0,1.6.09,2.4.12.36,0,.71.09,1.07.12l.69,0a2.44,2.44,0,0,0,1.48-.18,4.26,4.26,0,0,1,.7-.28c0,.12.09.07.14,0,.53-.24,1.08-.45,1.61-.68.14-.06.33,0,.39-.23s.07-.08.12-.1c.25-.08.49-.18.74-.24a9.16,9.16,0,0,1,1.8-.31c0,.14-.15.17-.23.25a23.88,23.88,0,0,0-3.13,3.53,11.73,11.73,0,0,1-1.32,1.66,4.47,4.47,0,0,1-2.78,1.28,6.46,6.46,0,0,1-1.64,0,3.28,3.28,0,0,0,1.6-1.8c.09,0,.1-.12.14-.19l.86-1.71A6,6,0,0,0,37,36c0-.05.05-.1,0-.15s-.12,0-.16.06a.35.35,0,0,0-.08.13l-1.17,2.33Z"/><path class="cls-14" d="M37.38,40.71a2.63,2.63,0,0,0,.84,0c.27,0,.53-.06.8-.07.68,0,1.34-.13,2-.2a28.23,28.23,0,0,0,3.16-.69c.12,0,.29-.11.34.11a22.48,22.48,0,0,1-7.19,1Z"/><path class="cls-7" d="M21.48,36.78c.2.17.48.16.69.31,0,0,0,.1,0,.13-.77-.26-1.52-.56-2.27-.87A21,21,0,0,1,18,35.26c-.75-.4-1.47-.84-2.25-1.18-.07-.09-.2-.11-.26-.22v-.13a16.36,16.36,0,0,1,2.2,1.14,15.24,15.24,0,0,0,2.74,1.51C20.76,36.51,21.11,36.68,21.48,36.78Z"/><path class="cls-8" d="M22.13,37.22c.05,0,0-.08,0-.13l.32.07,3,1c.16.06.33.12.39.31-.73-.21-1.46-.42-2.18-.68A12.65,12.65,0,0,1,22.13,37.22Z"/><path class="cls-7" d="M37.38,40.71l0,.21c-.78-.05-1.57-.07-2.35-.17,0-.14.06-.18.18-.17l1.74.12Z"/><path class="cls-7" d="M16.11,35.74c0-.16.06-.3.25-.31a.34.34,0,0,1,.27.3c0,.16-.15.32-.28.31S16.14,35.87,16.11,35.74Z"/><path class="cls-16" d="M44.35,30.94a.41.41,0,0,1-.12.31h-.16a.37.37,0,0,1-.49-.4c0-.57.07-1.15.13-1.72,0-.21,0-.46.17-.64h.34a.41.41,0,0,1,.22.48s0,.07,0,.12c0,.43-.07.86,0,1.3C44.37,30.58,44.24,30.76,44.35,30.94Z"/><path class="cls-13" d="M43.88,28.5c-.18.18-.14.43-.17.64-.06.57-.1,1.15-.13,1.72a.37.37,0,0,0,.49.4h.16a14.18,14.18,0,0,1-.92,1.13,1.11,1.11,0,0,1,0-.36c0-.81.07-1.62.13-2.43a13,13,0,0,0,.3-1.38.58.58,0,0,1,0-.14C43.93,28.17,43.86,28.35,43.88,28.5Z"/><path class="cls-14" d="M44.44,29a.41.41,0,0,0-.22-.48c0-.06.08-.13.16-.12s.1.1.11.17S44.6,28.85,44.44,29Z"/><path class="cls-2" d="M36.12,15c.17.42.35.84.52,1.27a13.29,13.29,0,0,1,.74,2.42,7.51,7.51,0,0,0,.19.82,1,1,0,0,0,.55.55l.05,0c-.06.2-.25.28-.4.37a2.83,2.83,0,0,0-.91.81c-.09,0-.14.07-.19.13a7.78,7.78,0,0,0-.93,1.21A4.18,4.18,0,0,0,35,25.1a14.17,14.17,0,0,1-.1,1.6c0,.7-.15,1.4-.25,2.1A9.1,9.1,0,0,1,34.46,30a.53.53,0,0,0-.12,0c-.7.23-1.4.45-2.11.64-.26.06-.51.19-.77,0,0-.7,0-1.41,0-2.11a3.22,3.22,0,0,0-.08-.76c0-.81.09-1.61,0-2.44l-.06.06c0,.76-.08,1.51-.14,2.27a9.75,9.75,0,0,1-.12,1.2c-.06.34-.09.68-.14,1,0,.13,0,.22.18.19a3.85,3.85,0,0,1-.07.49,3,3,0,0,0,0,1.48c-.07,0-.16,0-.2.06s.15.18.18.33H25.88a10,10,0,0,0,.35-1.62,11,11,0,0,1,.17-1.13c.16,0,.2-.08.21-.2s0-.32.06-.47c.16-.82.16-1.65.24-2.48.05-.64.06-1.3.06-1.95a7.07,7.07,0,0,1,0-1.3A1,1,0,0,0,27,23c0-.15-.09-.2-.23-.19V21.36c0-.13,0-.27-.16-.28s-.1.16-.1.25c0,.72-.06,1.43-.09,2.15,0,.33,0,.66,0,1,0,1-.07,2-.14,3,0,.25,0,.5-.06.75-.08.59-.16,1.17-.25,1.76s-.1,1-.22,1.56a.73.73,0,0,1-.4.56c-.08,0-.18.08-.16.2-.15,0-.22,0-.23.19s0,.28,0,.35c-.17.26-.05.55-.14.81a.31.31,0,0,0,0,.31,2,2,0,0,1,0,.43,17.63,17.63,0,0,1-1.78,0,.85.85,0,0,1-.45-.13,2.37,2.37,0,0,1-.7-1,4.2,4.2,0,0,0-.42-.85,1.05,1.05,0,0,0-.72-.47c-1-.17-1.92-.37-2.88-.57-1.57-.33-3.12-.74-4.66-1.19-.11,0-.24-.1-.24-.24s-.09-.21-.23-.12l-.16.06v-.09l.08,0c.09,0,.2,0,.22-.15s-.09-.13-.16-.18a.46.46,0,0,1-.18-.38,7.71,7.71,0,0,1,.1-1.36c.07-.55.18-1.11.24-1.66.09-.95.32-1.86.48-2.79s.43-1.82.67-2.73.45-1.77.76-2.63a4.07,4.07,0,0,0,.22-.81,2.18,2.18,0,0,1,.15-.61c.1,0,.09-.1.11-.16.52-1.46,1-2.92,1.68-4.32a.42.42,0,0,0,.08-.38,29.62,29.62,0,0,0-2.4,5.34c0,.11-.09.21-.13.32-.43,1.33-.85,2.67-1.2,4-.05.18-.18.37-.06.58-.06.2-.13.41-.18.62-.15.55-.32,1.1-.43,1.66-.14.74-.25,1.49-.36,2.23s-.17,1.24-.25,1.86,0,.53-.51.36c-.86-.27-1.71-.56-2.56-.85-.08,0-.19-.09-.24.05a.19.19,0,0,0,.15.26s0,0,.08,0c.87.29,1.72.59,2.59.87a.52.52,0,0,1,.44.53L8.49,28.25c-.1,0-.19-.07-.15-.21s-.05-.1-.11-.1-.08-.11-.13-.15a3.44,3.44,0,0,1-1.45-2,.46.46,0,0,0-.26-.3.33.33,0,0,1-.22-.24c0-.09-.06-.16-.18-.13s-.25,0-.25-.21,0-.13,0-.14-.17-.19-.26-.24-.23.08-.36,0H5c0-.17,0-.33,0-.5a18.31,18.31,0,0,1,.29-2.33A23.54,23.54,0,0,1,6,19a16.34,16.34,0,0,1,1.41-3.59A7.69,7.69,0,0,1,8.3,14,22.47,22.47,0,0,1,10,12.16c.07-.07.15-.14.15-.24a8,8,0,0,1,.13-1.46A10,10,0,0,1,11,8.88c.15-.22.28-.46.41-.69s.24-.18.19-.26-.27,0-.41,0h0c-.32.06-.63.2-1,.23.08-.23.3-.3.47-.42a12.91,12.91,0,0,1,4.89-2.1c.44-.09.88-.12,1.33-.18,0,0,.08,0,.11,0,.22,0,.43-.05.64-.06.47,0,1,0,1.42.06s.89,0,1.34.08A18.92,18.92,0,0,1,23.16,6a20.63,20.63,0,0,1,4.05,1.47c.71.36,1.43.71,2.11,1.13l1.57,1.07A16.58,16.58,0,0,1,32.64,11a18.67,18.67,0,0,1,1.46,1.35c.32.36.67.68,1,1,0,0,.07.13.15.05a2.44,2.44,0,0,1,.4.68A6.92,6.92,0,0,0,36.12,15ZM9.23,20.14A5.69,5.69,0,0,0,9,21.22a9.63,9.63,0,0,1-.17,1.2,16.09,16.09,0,0,0-.3,2.18c-.06.56-.08,1.11-.16,1.66,0,.07,0,.14.07.15s.11,0,.13-.1a2.94,2.94,0,0,0,.05-.59c.08-.65.17-1.31.26-2a12.65,12.65,0,0,1,.3-1.81,10.46,10.46,0,0,0,.31-1.76,6.88,6.88,0,0,0,.25-1.09,21,21,0,0,1,1.18-4c.64-1.6,1.35-3.16,2.09-4.71a1.87,1.87,0,0,0,.22-.56c-.11,0-.12.1-.14.16C12.29,11.47,11.61,13,11,14.47A27.15,27.15,0,0,0,9.5,18.76C9.4,19.21,9.29,19.67,9.23,20.14Z"/><path class="cls-10" d="M29.32,8.59c-.68-.42-1.4-.77-2.11-1.13A20.63,20.63,0,0,0,23.16,6a18.92,18.92,0,0,0-2.82-.51c-.45,0-.89-.07-1.34-.08s-.95-.07-1.42-.06c-.21,0-.42.07-.64.06s-.31-.06-.47-.08-.16,0-.2-.06,0-.13.07-.19c.44-.69.92-1.35,1.4-2,.16-.22.39-.22.61-.27s.21,0,.25-.13a7.72,7.72,0,0,1,1.52.09s0,.11.08.12.09,0,.1-.08h.09c0,.28.1.39.29.34a1.12,1.12,0,0,1,.7,0c.33.1.7.08,1,.35a.17.17,0,0,0,.17,0,.62.62,0,0,1,.51.11.6.6,0,0,0,.54,0l1.18.55.26.1a2.2,2.2,0,0,0,.25.17c.5.29,1,.57,1.51.88a28.09,28.09,0,0,1,2.34,1.57,5.66,5.66,0,0,1,1,.83,3.33,3.33,0,0,0-.73.62C29.31,8.44,29.32,8.51,29.32,8.59Z"/><path class="cls-15" d="M10.14,8.15c.33,0,.64-.17,1-.23h0c.14,0,.32-.08.41,0s-.14.16-.19.26a5.59,5.59,0,0,0-2,.74,7.52,7.52,0,0,0-1.79,1.49,10.43,10.43,0,0,0-1,1.29,16.3,16.3,0,0,0-1.12,2,.41.41,0,0,0-.07.23,15.36,15.36,0,0,0-1,2.84c-.19.67-.4,1.34-.53,2-.2,1-.42,2.06-.54,3.1-.07.58-.12,1.16-.21,1.74,0,.15,0,.33-.12.44,0-.39,0-.79,0-1.19A12.55,12.55,0,0,1,3,21c.06-.6.13-1.2.24-1.8s.22-1.15.32-1.73.29-.95.43-1.43a18.36,18.36,0,0,1,1.5-3.5,11.62,11.62,0,0,1,1.22-1.8A8.75,8.75,0,0,1,9.26,8.54C9.55,8.39,9.85,8.29,10.14,8.15Z"/><path class="cls-6" d="M3.52,17.48c-.1.58-.2,1.16-.32,1.73S3,20.41,3,21A12.55,12.55,0,0,0,2.87,23c0,.4,0,.8,0,1.19a2.25,2.25,0,0,0,.22,1,.43.43,0,0,1-.32-.16,6.6,6.6,0,0,0-.6-.58c0-.46.21-.9.22-1.36a3.83,3.83,0,0,0-.22.65.3.3,0,0,1-.39.28c0-.08-.05-.17-.14-.15s-.12.33,0,.41c-.06.55-.12,1.11-.2,1.66,0,.13,0,.29-.1.39s-.07-.13-.1-.19a6.69,6.69,0,0,1-.16-.75A2.31,2.31,0,0,1,1.23,24l.06,0c.05.44-.11.87-.06,1.31.08-.4.14-.81.19-1.22a.56.56,0,0,1,.24-.44.48.48,0,0,0,.22-.33c.15-.61.3-1.22.46-1.83a10.86,10.86,0,0,0,.31-1.28,1.23,1.23,0,0,0,.12-.5,1.54,1.54,0,0,0-.17.51c-.05,0-.06.1-.07.15a14.47,14.47,0,0,1-.4,1.47c-.22.63-.22,1.35-.76,1.85,0,0,0,0,0,.05s-.09.07-.09.14l-.13,0C1,23.75,1,23.61,1,23.47A1,1,0,0,0,1,23c0-.15.15-.22.26-.3.15.08.06.23.09.35s-.07.22.07.23.11-.13.14-.21c.09-.3.17-.6.26-.89.38-1.25.77-2.49,1.27-3.7.1-.27.2-.54.32-.81C3.39,17.6,3.4,17.49,3.52,17.48Z"/><path class="cls-9" d="M2.91,28.94a2.09,2.09,0,0,0,0-.61l.13,0s0,0,.09.05a.13.13,0,0,0,.13.08.09.09,0,0,0,.09.05.3.3,0,0,0,.22.13s.05,0,.08,0a.14.14,0,0,0,.13.09.11.11,0,0,0,.09,0,2.24,2.24,0,0,0,.53.33c.72.45,1.51.79,2.27,1.17.24.11.52.19.51.54s-.1.35-.36.24a5.06,5.06,0,0,1-.58-.25A24.58,24.58,0,0,1,3,29Z"/><path class="cls-2" d="M3.91,28.85a.11.11,0,0,1-.09,0c0-.09-.06-.09-.13-.09s-.07,0-.08,0-.13-.13-.22-.13a.09.09,0,0,1-.09-.05c0-.09-.07-.09-.13-.08s-.07,0-.09-.05-.12-.12-.22-.13a7.24,7.24,0,0,1-.94-.71A4.46,4.46,0,0,1,.58,25.68a.92.92,0,0,1,0-.49h0a.52.52,0,0,0,.07.27,5.28,5.28,0,0,0,1,1.37,11.88,11.88,0,0,0,1.43,1.11l1,.65v.09s-.09,0-.07.07S4,28.85,3.91,28.85Z"/><path class="cls-8" d="M15.46,33.73v.13a7.79,7.79,0,0,1-1-.41c-.48-.2-.94-.47-1.44-.63a13.28,13.28,0,0,0-1.33-.61L8.86,31,8,30.64a1,1,0,0,1-.32-.18s0-.08,0-.13l.84.36,3.52,1.48C13.2,32.66,14.36,33.14,15.46,33.73Z"/><path class="cls-5" d="M7.7,30.33c0,.05,0,.1,0,.13a4.84,4.84,0,0,1-.49-.18L4.48,29c-.14-.07-.33-.12-.39-.3v-.09a8.54,8.54,0,0,1,1.13.57c.21.1.41.23.63.31a4.79,4.79,0,0,0,.81.34h0l.13.09h0l0,0h0l0,0H7l0,.05h0l0,0Z"/><path class="cls-13" d="M.6,25.19h0a2.48,2.48,0,0,1-.17-1A1.5,1.5,0,0,1,1,23a1,1,0,0,1,0,.46c0,.14,0,.28.13.37a5.06,5.06,0,0,0-.41.88A2,2,0,0,1,.6,25.19Z"/><path class="cls-2" d="M2.86,28.24c.1,0,.2,0,.22.13l-.13,0A.2.2,0,0,1,2.86,28.24Z"/><path class="cls-5" d="M37.91,34c.1.07.18,0,.21-.08.16-.67.36-1.32.54-2s.39-1.36.58-2,.31-1.09.45-1.64.3-1,.41-1.46c.18-.81.46-1.6.66-2.42.14-.58.33-1.16.49-1.75.1-.36.18-.73.29-1.08.19-.59.33-1.18.51-1.77a11.17,11.17,0,0,0,.41-1.61,3.6,3.6,0,0,0,.06-.81,1,1,0,0,1,.14-.57,11.13,11.13,0,0,1,.69,2,3.13,3.13,0,0,1,.18.87c-.24-.26-.59-.3-.88-.46,0,0,0-.06-.09,0s0,.07,0,.11a.56.56,0,0,0,.39.41,1.68,1.68,0,0,1,.42.17.52.52,0,0,1,.1.11.44.44,0,0,0-.17.27c-.25.92-.51,1.85-.76,2.78-.38,1.36-.77,2.72-1.15,4.08-.59,2.13-1.16,4.27-1.8,6.38a.24.24,0,0,1-.18.14,4.14,4.14,0,0,0-.82.33c-.22.1-.39.31-.65.32C37.85,34.15,37.9,34.05,37.91,34Z"/><path class="cls-12" d="M39.56,33.47c.64-2.11,1.21-4.25,1.8-6.38.38-1.36.77-2.72,1.15-4.08.25-.93.51-1.86.76-2.78a.44.44,0,0,1,.17-.27,1.08,1.08,0,0,1,.39.83,17.17,17.17,0,0,1-.09,2.27c0,.52-.08,1-.13,1.56a.18.18,0,0,1,0,.09c-.13,0-.14.15-.17.25-.15.51-.3,1-.43,1.52s-.33,1.26-.51,1.88-.39,1.38-.59,2.08l-.63,2.29c-.07.29-.19.49-.53.52S39.94,33.4,39.56,33.47Z"/><path class="cls-2" d="M39.56,33.47c.38-.07.76-.18,1.15-.22s.46-.23.53-.52l.63-2.29c.2-.7.4-1.39.59-2.08s.33-1.25.51-1.88.28-1,.43-1.52c0-.1,0-.22.17-.25,0,.76-.07,1.52-.09,2.28s-.09,1.32-.08,2c0,.2-.12.41,0,.61-.06.81-.15,1.62-.13,2.43a1.11,1.11,0,0,0,0,.36,3.9,3.9,0,0,0-.09,1.13,1.32,1.32,0,0,0-.69-.31,8.79,8.79,0,0,0-1.15,0c-.27,0-.32.06-.29.33a.41.41,0,0,1-.26.49c-.5.19-1,.37-1.49.59l-1.4.64c-.09,0-.18.05-.16-.07a3.3,3.3,0,0,1,.13-.89c.26,0,.43-.22.65-.32a4.14,4.14,0,0,1,.82-.33A.24.24,0,0,0,39.56,33.47Z"/><path class="cls-4" d="M37.91,34.26a3.3,3.3,0,0,0-.13.89c0,.12.07.11.16.07l1.4-.64c.49-.22,1-.4,1.49-.59a.41.41,0,0,0,.26-.49c0-.27,0-.34.29-.33a8.79,8.79,0,0,1,1.15,0,1.32,1.32,0,0,1,.69.31c0,.06,0,.13,0,.18a9.16,9.16,0,0,0-1.8.31c-.25.06-.49.16-.74.24,0,0-.12,0-.12.1a9.25,9.25,0,0,0-2.14.87,4.26,4.26,0,0,0-.7.28,2.44,2.44,0,0,1-1.48.18l-.69,0c-.36,0-.71-.1-1.07-.12-.8,0-1.6-.12-2.4-.12a.23.23,0,0,1-.19-.09.92.92,0,0,1,.36-.13l.8,0c.06,0,.16,0,.18-.07s.12-.09.2-.11c.3-.06.61,0,.92-.07a5.1,5.1,0,0,1,.68,0,.82.82,0,0,1-.46.1.65.65,0,0,0-.22.08,1.19,1.19,0,0,0,.59,0,1.06,1.06,0,0,1,.88.14c.14.11.38,0,.55.11a2.26,2.26,0,0,0,.63.23c.08,0,.15,0,.16-.08l.18-1.74a.31.31,0,0,1,.21.05c0,.44-.08.88-.07,1.38a.59.59,0,0,0,.12-.36,5.81,5.81,0,0,1,.13-1c.1,0,.14.1.22.13v0C37.9,34.05,37.85,34.15,37.91,34.26Z"/><path class="cls-16" d="M38.17,20.09l-.05,0a1.34,1.34,0,0,0,0-.2c0-.05,0-.12,0-.16s-.09.08-.18.07a.56.56,0,0,1,.15-.46c-.27-.08-.27-.12,0-.35-.12-.05-.25-.12-.07-.26a.17.17,0,0,0,0-.05c-.3-.23-.06-.62-.27-.87a13.74,13.74,0,0,0-.82-3.08.26.26,0,0,1,.07-.31,4,4,0,0,1,.44.93c.17.41.32.83.47,1.25.23.9.42,1.81.61,2.71,0,.15,0,.28,0,.43S38.39,20.05,38.17,20.09Z"/><path class="cls-7" d="M37.51,15.12a.5.5,0,0,1-.17-.29,9.14,9.14,0,0,0-.67-1.46,1,1,0,0,1-.2-.51c.08,0,.11-.13.17-.18a3.25,3.25,0,0,1,.54,1,7,7,0,0,1,.44.91A.46.46,0,0,1,37.51,15.12Z"/><path class="cls-3" d="M34.46,30a9.1,9.1,0,0,0,.22-1.18c.1-.7.2-1.4.25-2.1a14.17,14.17,0,0,0,.1-1.6,4.18,4.18,0,0,1,.71-2.49,7.78,7.78,0,0,1,.93-1.21c0-.06.1-.13.19-.13a5.08,5.08,0,0,0-.36,2c0,.66-.06,1.31-.09,2,0,.34,0,.68,0,1s-.06.85-.09,1.27c0,.72-.11,1.44-.17,2.16,0,.29,0,.59,0,.89,0,.08,0,.18-.09.22,0-.25-.19-.32-.44-.31a6.52,6.52,0,0,0-1.17.09A1.77,1.77,0,0,0,34.46,30Z"/><path class="cls-7" d="M29.32,8.59c0-.08,0-.15.05-.21a3.33,3.33,0,0,1,.73-.62,9.47,9.47,0,0,1,1.19,1c.31.27.61.56.91.84s.56.65.86,1a17.06,17.06,0,0,1,2.07,2.73l.12.19c-.08.08-.12,0-.15-.05-.33-.35-.68-.67-1-1A18.67,18.67,0,0,0,32.64,11a16.58,16.58,0,0,0-1.75-1.38Z"/><path class="cls-2" d="M32.2,9.59c-.3-.28-.6-.57-.91-.84a9.47,9.47,0,0,0-1.19-1,5.66,5.66,0,0,0-1-.83,28.09,28.09,0,0,0-2.34-1.57c-.49-.31-1-.59-1.51-.88A2.2,2.2,0,0,1,25,4.31a.92.92,0,0,1,.56.11c.06,0,.11.09.17.1a4.35,4.35,0,0,1,1.19.57A11.63,11.63,0,0,1,28.48,6a9.47,9.47,0,0,1,1.4,1c.42.4.91.71,1.31,1.13.23.23.4.49.61.73s.31.21.35.42A.86.86,0,0,1,32.2,9.59Z"/><path class="cls-9" d="M23.57,3.66a.6.6,0,0,1-.54,0,.62.62,0,0,0-.51-.11.17.17,0,0,1-.17,0c-.27-.27-.64-.25-1-.35a1.12,1.12,0,0,0-.7,0c-.19.05-.27-.06-.29-.34a.73.73,0,0,1,.25,0,16.81,16.81,0,0,1,2.88.79Z"/><path class="cls-9" d="M20.3,2.79c0,.06,0,.09-.1.08s-.07-.07-.08-.12A.28.28,0,0,1,20.3,2.79Z"/><path class="cls-13" d="M34.38,30.59a6.52,6.52,0,0,1,1.17-.09c.25,0,.4.06.44.31v.35c-.12.11-.12.19,0,.31-.05.32-.1.64-.14,1s-.11.87-.17,1.3a1.56,1.56,0,0,1-.08.48,3.09,3.09,0,0,0-1.51-.09.34.34,0,0,0-.2.06,3.06,3.06,0,0,1-1,.39.41.41,0,0,1-.51-.16,10.88,10.88,0,0,1-.68-.95c-.06-.11-.08-.27-.25-.3a1,1,0,0,0-.38-1L31,32.08a3,3,0,0,1,0-1.48,3.85,3.85,0,0,0,.07-.49.19.19,0,0,0,0-.08c.1-.74.19-1.48.23-2.22a3.22,3.22,0,0,1,.08.76c0,.7,0,1.41,0,2.11a5.07,5.07,0,0,1,0,.87c0,.05,0,.09,0,.14a4.87,4.87,0,0,0,.56,1.66c.11.23.22.49.58.43s.7-.06,1.05-.09c.12,0,.17-.09.19-.2.1-.49.19-1,.26-1.49S34.3,31.06,34.38,30.59Zm1.25,1.93,0,0s-.05,0-.05,0,0,0,0,0Z"/><path class="cls-16" d="M31.45,33.16c.17,0,.19.19.25.3a10.88,10.88,0,0,0,.68.95.41.41,0,0,0,.51.16,3.06,3.06,0,0,0,1-.39.34.34,0,0,1,.2-.06,3.09,3.09,0,0,1,1.51.09,3.26,3.26,0,0,0-.05.45c0,.05,0,.11-.08.11s-.31.11-.48.09a5.1,5.1,0,0,0-.68,0c-.31,0-.62,0-.92.07-.08,0-.17,0-.2.11s-.12.06-.18.07l-.8,0a.92.92,0,0,0-.36.13,1.27,1.27,0,0,0-.61.31,1.38,1.38,0,0,1-.77.16c-.85,0-1.71.06-2.56.09a9.43,9.43,0,0,1-1.84,0c-.21,0-.46,0-.63-.17.09,0,.07-.06,0-.12a2.37,2.37,0,0,1-.09-.36c0-.2.06-.3.26-.3h5.07c.08,0,.16,0,.2.08a.29.29,0,0,0,.23.25c.12,0,.06-.13.08-.2s0-.21,0-.31a11.15,11.15,0,0,0,.13-1.53h0Z"/><path class="cls-3" d="M36,31.47c-.12-.12-.12-.2,0-.31Z"/><path class="cls-6" d="M37.69,33.78a5.81,5.81,0,0,0-.13,1,.59.59,0,0,1-.12.36c0-.5.11-.94.07-1.38h.18Z"/><path class="cls-2" d="M37.69,33.78h-.13c0-.22,0-.46.14-.66C37.73,33.34,37.66,33.56,37.69,33.78Z"/><path class="cls-14" d="M35.55,38.48l.06-.16L36.78,36a.35.35,0,0,1,.08-.13c0-.06.09-.1.16-.06s0,.1,0,.15a6,6,0,0,1-.36.72l-.86,1.71c0,.07,0,.15-.14.19Z"/><path class="cls-4" d="M25.44,35.65c.17.19.42.13.63.17a9.43,9.43,0,0,0,1.84,0c.85,0,1.71,0,2.56-.09a1.38,1.38,0,0,0,.77-.16.23.23,0,0,1-.24.25l-1.08.1-1.5.16-1.06.1-1.76.16-1.36.1c-.79,0-1.58.11-2.37.14-.13,0-.31,0-.39.16-.37-.1-.72-.27-1.08-.4a15.24,15.24,0,0,1-2.74-1.51,16.36,16.36,0,0,0-2.2-1.14c-1.1-.59-2.26-1.07-3.4-1.56L8.54,30.69l-.84-.36-.56-.26,0,0h0L7,30H7l0,0h0l0,0h0c0-.09-.07-.09-.13-.09h0s0,0,0-.06l-1.28-.67c-.06,0-.13,0-.14.08a8.54,8.54,0,0,0-1.13-.57l-1-.65c.09-.1,0-.13-.06-.17l-.43-.37a4.54,4.54,0,0,1-.77-.81A2.67,2.67,0,0,0,2,25.76a2.23,2.23,0,0,0,.51.55c.36.28.7.57,1.07.84.66.49,1.3,1,2,1.43.52.33,1.06.61,1.56.94.14.09.35.11.32.35,0,.05,0,.06.09.07.6.28,1.25.41,1.86.66.2.08.43.07.61.16a6.43,6.43,0,0,0,1.34.46,2,2,0,0,1,.48.25.13.13,0,0,1,0,.12c0,.06-.06.13,0,.17s.08-.07.13-.09l.08,0c0,.09,0,.17,0,.25s.16.23.29.27.19,0,.2-.17c0-.35.15-.7.17-1.06s-.05-.33-.34-.29l-.14,0,0-.52c0-.16.12-.26.18-.39l.16-.06c.14-.09.24-.11.23.12s.13.2.24.24c1.54.45,3.09.86,4.66,1.19,1,.2,1.92.4,2.88.57a1.05,1.05,0,0,1,.72.47,4.2,4.2,0,0,1,.42.85,2.37,2.37,0,0,0,.7,1,.85.85,0,0,0,.45.13,17.63,17.63,0,0,0,1.78,0,2.29,2.29,0,0,1,0,.37c-.07.42.23.59.52.77C25.26,35.59,25.34,35.62,25.44,35.65Zm-1.82-.78h.08c.08,0,.2,0,.19-.08s-.1-.15-.21-.12a.23.23,0,0,1-.18,0,.43.43,0,0,0-.41,0,.14.14,0,0,1-.21,0,.14.14,0,0,0-.13-.07c-.69,0-1.37-.16-2.05-.25-1.17-.17-2.32-.41-3.46-.69s-2.06-.55-3.09-.83l-.23-.07c-.05,0-.09-.11-.14,0s0,.12.09.16a4.4,4.4,0,0,0,.92.33,50,50,0,0,0,5.9,1.38c.56.09,1.12.16,1.69.21.25,0,.51.13.76,0a.19.19,0,0,1,.2,0A.35.35,0,0,0,23.62,34.87Z"/><path class="cls-14" d="M38.38,35.21a9.25,9.25,0,0,1,2.14-.87c-.06.18-.25.17-.39.23-.53.23-1.08.44-1.61.68C38.47,35.28,38.4,35.33,38.38,35.21Z"/><path class="cls-7" d="M3.13,25.1a2.25,2.25,0,0,1-.22-1c.16-.11.1-.29.12-.44.09-.58.14-1.16.21-1.74.12-1,.34-2.07.54-3.1.13-.69.34-1.36.53-2a15.36,15.36,0,0,1,1-2.84c.08,0,.13-.06.18-.11a10.26,10.26,0,0,1,1.54-1.55A11.19,11.19,0,0,1,10,10.54a.79.79,0,0,1,.29-.08,8,8,0,0,0-.13,1.46c0,.1-.08.17-.15.24A22.47,22.47,0,0,0,8.3,14a7.69,7.69,0,0,0-.92,1.4A16.34,16.34,0,0,0,6,19a23.54,23.54,0,0,0-.6,2.77,18.31,18.31,0,0,0-.29,2.33c0,.17,0,.33,0,.5A20.59,20.59,0,0,0,5,26.8c-.08.27-.08.27-.28.1l0,0A5.52,5.52,0,0,1,3.13,25.1Z"/><path class="cls-6" d="M34.38,30.59c-.08.47-.16.94-.22,1.41s-.16,1-.26,1.49c0,.11-.07.19-.19.2-.35,0-.7,0-1.05.09s-.47-.2-.58-.43a4.87,4.87,0,0,1-.56-1.66c0-.05,0-.09,0-.14a5.07,5.07,0,0,0,0-.87c.26.16.51,0,.77,0,.71-.19,1.41-.41,2.11-.64a.53.53,0,0,1,.12,0A1.77,1.77,0,0,1,34.38,30.59Z"/><path class="cls-14" d="M10.27,10.46a.79.79,0,0,0-.29.08,11.19,11.19,0,0,0-2.91,1.79,10.26,10.26,0,0,0-1.54,1.55s-.1.11-.18.11a.41.41,0,0,1,.07-.23,16.3,16.3,0,0,1,1.12-2,10.43,10.43,0,0,1,1-1.29A7.52,7.52,0,0,1,9.34,8.93a5.59,5.59,0,0,1,2-.74c-.13.23-.26.47-.41.69A10,10,0,0,0,10.27,10.46Z"/><path class="cls-3" d="M11.84,29.37a.52.52,0,0,0-.44-.53c-.87-.28-1.72-.58-2.59-.87,0,0-.05,0-.08,0a.19.19,0,0,1-.15-.26c.05-.14.16-.07.24-.05.85.29,1.7.58,2.56.85.54.17.42.21.51-.36s.15-1.24.25-1.86.22-1.49.36-2.23c.11-.56.28-1.11.43-1.66.05-.21.12-.42.18-.62.13-.45.26-.9.41-1.35.34-1,.69-2.06,1-3.1a1.64,1.64,0,0,0,.13-.43l.56-1.49h0c-.06.33-.18.64-.26,1a2.18,2.18,0,0,0-.15.61,4.07,4.07,0,0,1-.22.81c-.31.86-.53,1.75-.76,2.63s-.51,1.81-.67,2.73-.39,1.84-.48,2.79c-.06.55-.17,1.11-.24,1.66a7.71,7.71,0,0,0-.1,1.36.46.46,0,0,0,.18.38c.07.05.17.08.16.18s-.13.12-.22.15l-.08,0a.63.63,0,0,1-.52-.05C11.94,29.53,11.88,29.46,11.84,29.37Z"/><path class="cls-6" d="M5,26.8A20.59,20.59,0,0,1,5,24.58h0c.13,0,.27-.1.36,0s.1.22.26.24,0,.08,0,.14.09.24.25.21.16,0,.18.13a.33.33,0,0,0,.22.24.46.46,0,0,1,.26.3,3.44,3.44,0,0,0,1.45,2c.05,0,.08.1.13.15s-.24.16-.37.2a.43.43,0,0,0-.29.28c-.14,0-.2-.14-.3-.2-.61-.36-1.2-.73-1.77-1.14C5.34,27,5.2,26.78,5,26.8Z"/><path class="cls-3" d="M25.14,32.25c0-.12.08-.17.16-.2a.73.73,0,0,0,.4-.56c.12-.52.14-1,.22-1.56s.17-1.17.25-1.76c0-.25,0-.5.06-.75.07-1,.13-2,.14-3,0-.33,0-.66,0-1,0-.72.09-1.43.09-2.15,0-.09,0-.25.1-.25s.16.15.16.28v1.43a8.17,8.17,0,0,0,0,.86c0,.83-.1,1.65-.1,2.47,0,.42-.06.84-.06,1.26a4.87,4.87,0,0,1-.05.65c-.08.56-.13,1.13-.16,1.69a11,11,0,0,0-.17,1.13,10,10,0,0,1-.35,1.62c-.25.06-.44-.11-.66-.18h0s0,0-.08,0Z"/><path class="cls-9" d="M7.57,28.42a.43.43,0,0,1,.29-.28c.13,0,.32,0,.37-.2.06,0,.15,0,.11.1s.05.17.15.21l3.35,1.12c0,.09.1.16.09.26l-.15,0a.64.64,0,0,1,.28.64c-.05,0,0,.08,0,.13l-.37-.14c-.82-.28-1.65-.57-2.48-.84-.56-.19-1.11-.4-1.68-.55A1.26,1.26,0,0,1,7.57,28.42Z"/><path class="cls-7" d="M25.22,32.29c.22.07.41.24.66.18H31c0-.15-.25-.17-.18-.33s.13-.06.2-.06l.05.07a1,1,0,0,1,.38,1h0a1.79,1.79,0,0,0-.83-.17H25.91c-.29,0-.29,0-.29.29v.28l-.05,0c-.15-.11-.12-.28-.13-.43A1.21,1.21,0,0,0,25.22,32.29Z"/><path class="cls-14" d="M9.23,20.14c.06-.47.17-.93.27-1.38A27.15,27.15,0,0,1,11,14.47c.64-1.51,1.32-3,2.08-4.45,0-.06,0-.13.14-.16a1.87,1.87,0,0,1-.22.56c-.74,1.55-1.45,3.11-2.09,4.71a21,21,0,0,0-1.18,4,6.88,6.88,0,0,1-.25,1.09Z"/><path class="cls-15" d="M9.23,20.14l.22,0a10.46,10.46,0,0,1-.31,1.76,12.65,12.65,0,0,0-.3,1.81c-.09.66-.18,1.32-.26,2a2.94,2.94,0,0,1-.05.59c0,.08,0,.11-.13.1s-.08-.08-.07-.15c.08-.55.1-1.1.16-1.66a16.09,16.09,0,0,1,.3-2.18A9.63,9.63,0,0,0,9,21.22,5.69,5.69,0,0,1,9.23,20.14Z"/><path class="cls-8" d="M26.4,29.72c0-.56.08-1.13.16-1.69a4.87,4.87,0,0,0,.05-.65c0-.42.05-.84.06-1.26,0-.82.09-1.64.1-2.47a8.17,8.17,0,0,1,0-.86c.14,0,.21,0,.23.19a1,1,0,0,1,0,.34,7.07,7.07,0,0,0,0,1.3c0,.65,0,1.31-.06,1.95-.08.83-.08,1.66-.24,2.48,0,.15,0,.31-.06.47S26.56,29.75,26.4,29.72Z"/><path class="cls-14" d="M15,16.34c.08-.32.2-.63.26-1,0,0,.06-.08,0-.13a.22.22,0,0,0-.06.13l-.56,1.49-.18-.05a29.62,29.62,0,0,1,2.4-5.34.42.42,0,0,1-.08.38c-.65,1.4-1.16,2.86-1.68,4.32C15.12,16.24,15.13,16.34,15,16.34Zm.33-1.23h0v0h0Z"/><path class="cls-8" d="M14.5,16.82l.18.05a1.64,1.64,0,0,1-.13.43c-.34,1-.69,2.07-1,3.1-.15.45-.28.9-.41,1.35-.12-.21,0-.4.06-.58.35-1.36.77-2.7,1.2-4C14.41,17,14.46,16.93,14.5,16.82Z"/><path class="cls-4" d="M25.22,32.29a1.21,1.21,0,0,1,.22.88c-.07,0-.09.06-.09.12a2.73,2.73,0,0,1,0,.57c-.07,0-.11,0-.17-.08s-.3-.07-.4.13a.31.31,0,0,1,0-.31c.09-.26,0-.55.14-.81.05-.07,0-.23,0-.35s.08-.21.23-.19h0s.05,0,.08,0Z"/><path class="cls-14" d="M31.37,27.81c0,.74-.13,1.48-.23,2.22a.19.19,0,0,1,0,.08c-.16,0-.19-.06-.18-.19.05-.34.08-.68.14-1a9.75,9.75,0,0,0,.12-1.2c.06-.76.09-1.51.14-2.27l.06-.06C31.46,26.2,31.38,27,31.37,27.81Z"/><path class="cls-16" d="M24.74,33.91c.1-.2.21-.23.4-.13s.1.09.17.08v.48a.1.1,0,0,0,0,.09,1.87,1.87,0,0,0-.05,1c-.29-.18-.59-.35-.52-.77a2.29,2.29,0,0,0,0-.37A2,2,0,0,0,24.74,33.91Z"/><path class="cls-14" d="M12.06,30.29a.64.64,0,0,0-.28-.64l.15,0a.63.63,0,0,0,.52.05v.09c-.06.13-.19.23-.18.39C12.18,30.16,12.17,30.31,12.06,30.29Z"/><path class="cls-11" d="M7.57,28.42a1.26,1.26,0,0,0-.08.47c0,.11,0,.22,0,.33s0,.16.11.17a4.37,4.37,0,0,0,.54.19c.52.07,1,.39,1.47.46.29,0,.51.25.79.29a2.42,2.42,0,0,1,.69.22,8,8,0,0,1,.85.35V31c-.14,0-.07.1,0,.17s0,.17.12.07.07-.16.18-.16l-.09.57-.08,0s0,.12-.13.09,0-.11,0-.17a.13.13,0,0,0,0-.12,2,2,0,0,0-.48-.25A6.43,6.43,0,0,1,10,30.76c-.18-.09-.41-.08-.61-.16-.61-.25-1.26-.38-1.86-.66,0,0-.1,0-.09-.07,0-.24-.18-.26-.32-.35-.5-.33-1-.61-1.56-.94-.7-.44-1.34-.94-2-1.43-.37-.27-.71-.56-1.07-.84A2.23,2.23,0,0,1,2,25.76c0-.13,0-.26.05-.39a7.1,7.1,0,0,1,.17-1,6.6,6.6,0,0,1,.6.58.43.43,0,0,0,.32.16,5.52,5.52,0,0,0,1.5,1.76l0,0c.2.17.2.17.28-.1.24,0,.38.16.54.28.57.41,1.16.78,1.77,1.14C7.37,28.28,7.43,28.4,7.57,28.42Z"/><path class="cls-13" d="M2.21,24.36a7.1,7.1,0,0,0-.17,1c0,.13,0,.26-.05.39a2.67,2.67,0,0,1-.17.83c-.16-.13-.42-.1-.48-.35.13-.1.08-.26.1-.39.08-.55.14-1.11.2-1.66a1,1,0,0,1,.18-.26.3.3,0,0,0,.39-.28A3.83,3.83,0,0,1,2.43,23C2.42,23.46,2.23,23.9,2.21,24.36Z"/><path class="cls-16" d="M1.34,26.24c.06.25.32.22.48.35a4.54,4.54,0,0,0,.77.81l.43.37s.15.07.06.17a11.88,11.88,0,0,1-1.43-1.11,5.28,5.28,0,0,1-1-1.37.52.52,0,0,1-.07-.27,2,2,0,0,0,.11-.47,5.06,5.06,0,0,1,.41-.88l.13,0h0v.12l-.06,0a2.31,2.31,0,0,0-.15,1.35,6.69,6.69,0,0,0,.16.75C1.27,26.11,1.28,26.19,1.34,26.24Z"/><path class="cls-14" d="M1.29,23.92V23.8l.05-.14s0,0,0-.05c.54-.5.54-1.22.76-1.85a14.47,14.47,0,0,0,.4-1.47c0-.05,0-.12.07-.15h0a10.86,10.86,0,0,1-.31,1.28c-.16.61-.31,1.22-.46,1.83a.48.48,0,0,1-.22.33.56.56,0,0,0-.24.44c0,.41-.11.82-.19,1.22C1.18,24.79,1.34,24.36,1.29,23.92Z"/><path class="cls-14" d="M1.82,23.93a1,1,0,0,0-.18.26c-.08-.08-.06-.39,0-.41S1.81,23.85,1.82,23.93Z"/><path class="cls-8" d="M2.65,20.13h0a1.54,1.54,0,0,1,.17-.51A1.23,1.23,0,0,1,2.65,20.13Z"/><path class="cls-5" d="M1.34,23.66l-.05.14h0C1.25,23.73,1.25,23.67,1.34,23.66Z"/><path class="cls-2" d="M3.39,28.55c.09,0,.19,0,.22.13A.3.3,0,0,1,3.39,28.55Z"/><path class="cls-2" d="M3.17,28.42c.06,0,.13,0,.13.08A.13.13,0,0,1,3.17,28.42Z"/><path class="cls-2" d="M3.69,28.72c.07,0,.13,0,.13.09A.14.14,0,0,1,3.69,28.72Z"/><path class="cls-16" d="M5.22,29.16c0-.1.08-.11.14-.08l1.28.67s0,0,0,.06a4.79,4.79,0,0,1-.81-.34C5.63,29.39,5.43,29.26,5.22,29.16Z"/><path class="cls-16" d="M6.66,29.81c.06,0,.12,0,.13.09Z"/><path class="cls-16" d="M7.09,30l0,0Z"/><path class="cls-16" d="M6.92,29.94l0,0Z"/><path class="cls-16" d="M6.83,29.9l0,0Z"/><path class="cls-16" d="M7,30l0,.05Z"/><path class="cls-3" d="M35.63,32.52l-.06,0s0,0,0,0,0,0,.05,0Z"/><path class="cls-2" d="M25.62,33.56v-.28c0-.29,0-.29.29-.29h4.67a1.79,1.79,0,0,1,.83.17,11.15,11.15,0,0,1-.13,1.53c-.23.06-.19-.15-.26-.26v-.26c.09-.11,0-.24,0-.36s-.07-.24-.23-.25H25.62Z"/><path class="cls-13" d="M25.22,35.48a1.87,1.87,0,0,1,.05-1l.12.11c.12.11.08,0,.09-.07H31V35h-.05c0-.09-.12-.08-.2-.08H25.66c-.2,0-.29.1-.26.3a2.37,2.37,0,0,0,.09.36c0,.06,0,.11,0,.12S25.26,35.59,25.22,35.48Z"/><path class="cls-4" d="M31,35v-.48l0,0c.07.11,0,.32.26.26,0,.1,0,.21,0,.31A.4.4,0,0,0,31,35Z"/><path class="cls-3" d="M31,35a.4.4,0,0,1,.26,0c0,.07,0,.21-.08.2a.29.29,0,0,1-.23-.25Z"/><path class="cls-9" d="M23.62,34.87a.35.35,0,0,1-.28-.09.19.19,0,0,0-.2,0c-.25.16-.51.06-.76,0-.57-.05-1.13-.12-1.69-.21a50,50,0,0,1-5.9-1.38,4.4,4.4,0,0,1-.92-.33c-.07,0-.14-.08-.09-.16s.09,0,.14,0l.23.07c1,.28,2.06.57,3.09.83s2.29.52,3.46.69c.68.09,1.36.21,2.05.25a.14.14,0,0,1,.13.07.14.14,0,0,0,.21,0,.43.43,0,0,1,.41,0,.23.23,0,0,0,.18,0c.11,0,.21,0,.21.12s-.11.08-.19.08Z"/><path class="cls-16" d="M12.1,31.64l.09-.57.05-.39.14,0c.29,0,.35,0,.34.29s-.15.71-.17,1.06c0,.15-.08.21-.2.17s-.31-.06-.29-.27S12.12,31.73,12.1,31.64Z"/><path class="cls-8" d="M12.24,30.68l-.05.39c-.11,0-.12.11-.18.16s-.12,0-.12-.07,0-.11,0-.17V30.9l.09-.48c0-.05,0-.1,0-.13s.12-.13.22-.13Z"/><path class="cls-2" d="M15.24,15.38a.22.22,0,0,1,.06-.13c0,.05,0,.09,0,.13Z"/><path class="cls-7" d="M25.22,32.29s-.07,0-.08,0S25.21,32.26,25.22,32.29Z"/><path class="cls-2" d="M12,30.42l-.09.48a8,8,0,0,0-.85-.35,2.42,2.42,0,0,0-.69-.22c-.28,0-.5-.25-.79-.29-.51-.07-.95-.39-1.47-.46a4.37,4.37,0,0,1-.54-.19c-.07,0-.11-.09-.11-.17s0-.22,0-.33c.57.15,1.12.36,1.68.55.83.27,1.66.56,2.48.84Z"/><path class="cls-11" d="M25.62,33.56h5.21c.16,0,.27.07.23.25s.05.25,0,.36c-.09-.11-.21-.09-.32-.09H26a.49.49,0,0,0-.21,0c-.08,0-.24,0-.23.1s.16,0,.25,0h4.68c.08,0,.2-.06.23.08H25.78a.53.53,0,0,0-.3,0l-.17,0v-.43s.07,0,.08.05,0,.11.09.1,0-.08.06-.12a.79.79,0,0,0,0-.34Z"/><path class="cls-2" d="M25.57,33.6a.79.79,0,0,1,0,.34s0,.11-.06.12-.07-.05-.09-.1,0-.05-.08-.05v0a2.73,2.73,0,0,0,0-.57c0-.06,0-.12.09-.12S25.42,33.49,25.57,33.6Z"/><path class="cls-2" d="M15.36,15.11v0h0v0Z"/><path class="cls-4" d="M25.31,34.34l.17,0v.08c0,.06,0,.18-.09.07l-.12-.11A.1.1,0,0,1,25.31,34.34Z"/><path class="cls-2" d="M11.93,31c0,.06,0,.13,0,.17S11.79,31,11.93,31Z"/><path class="cls-4" d="M30.71,34.34c0-.14-.15-.08-.23-.08H25.8c-.09,0-.24.06-.25,0s.15-.06.23-.1a.49.49,0,0,1,.21,0H30.7c.11,0,.23,0,.32.09v.22A.81.81,0,0,0,30.71,34.34Z"/><path class="cls-3" d="M30.71,34.34a.81.81,0,0,1,.31,0v0l0,0h-5.5v-.08a.53.53,0,0,1,.3,0Z"/></g></g></svg>